# xmcd
#
# Track frame offsets:
#	150
#	12624
#	34819
#	49740
#	63089
#	73964
#	91556
#	102764
#	119486
#	138761
#	151817
#	164487
#
# Disc length: 2396 seconds
#
# Revision: 3
# Processed by: cddbd v1.5.2PL0 Copyright (c) Steve Scherf et al.
# Submitted via: audiograbber 1.83.01
#
DISCID=99095a0c
DTITLE=Bjerkreim Syngjande Kameratar - Han gjorde alt
DYEAR=2010
DGENRE=Christian
TTITLE0=Jesus takk for lovsangstonen
TTITLE1=Attmed vegen
TTITLE2=Kvifor kjem det tunge tider
TTITLE3=Slik som eg var
TTITLE4=Rop det ut
TTITLE5=Om jeg eide alt men ikke Jesus
TTITLE6=Jeg har hørt om Herren Jesus
TTITLE7=Det gjorde Gud
TTITLE8=Det er fullbrakt
TTITLE9=Å kor rik eg er
TTITLE10=Han tek ikkje glansen av livet
TTITLE11=Velsignelsen
EXTD=
EXTT0=
EXTT1=
EXTT2=
EXTT3=
EXTT4=
EXTT5=
EXTT6=
EXTT7=
EXTT8=
EXTT9=
EXTT10=
EXTT11=
PLAYORDER=
